<svg style="position: absolute; width: 0; height: 0;" width="0" height="0" version="1.1" xmlns="http://www.w3.org/2000/svg" xmlns:xlink="http://www.w3.org/1999/xlink">
    <defs>
        <symbol id="icon-undo" viewBox="0 0 32 32">
            <title>undo</title>
            <path class="path1" d="M23.808 32c3.554-6.439 4.153-16.26-9.808-15.932v7.932l-12-12 12-12v7.762c16.718-0.436 18.58 14.757 9.808 24.238z"></path>
        </symbol>
        <symbol id="icon-redo" viewBox="0 0 32 32">
            <title>redo</title>
            <path class="path1" d="M18 7.762v-7.762l12 12-12 12v-7.932c-13.961-0.328-13.362 9.493-9.808 15.932-8.772-9.482-6.909-24.674 9.808-24.238z"></path>
        </symbol>
        <symbol id="icon-enlarge" viewBox="0 0 32 32">
            <title>enlarge</title>
            <path class="path1" d="M32 0h-13l5 5-6 6 3 3 6-6 5 5z"></path>
            <path class="path2" d="M32 32v-13l-5 5-6-6-3 3 6 6-5 5z"></path>
            <path class="path3" d="M0 32h13l-5-5 6-6-3-3-6 6-5-5z"></path>
            <path class="path4" d="M0 0v13l5-5 6 6 3-3-6-6 5-5z"></path>
        </symbol>
        <symbol id="icon-shrink" viewBox="0 0 32 32">
            <title>shrink</title>
            <path class="path1" d="M18 14h13l-5-5 6-6-3-3-6 6-5-5z"></path>
            <path class="path2" d="M18 18v13l5-5 6 6 3-3-6-6 5-5z"></path>
            <path class="path3" d="M14 18h-13l5 5-6 6 3 3 6-6 5 5z"></path>
            <path class="path4" d="M14 14v-13l-5 5-6-6-3 3 6 6-5 5z"></path>
        </symbol>
        <symbol id="icon-list-numbered" viewBox="0 0 32 32">
            <title>list-numbered</title>
            <path class="path1" d="M12 26h20v4h-20zM12 14h20v4h-20zM12 2h20v4h-20zM6 0v8h-2v-6h-2v-2zM4 16.438v1.563h4v2h-6v-4.563l4-1.875v-1.563h-4v-2h6v4.563zM8 22v10h-6v-2h4v-2h-4v-2h4v-2h-4v-2z"></path>
        </symbol>
        <symbol id="icon-list-bullet" viewBox="0 0 32 32">
            <title>list bullet</title>
            <path class="path1" d="M12 2h20v4h-20v-4zM12 14h20v4h-20v-4zM12 26h20v4h-20v-4zM0 4c0-2.209 1.791-4 4-4s4 1.791 4 4c0 2.209-1.791 4-4 4s-4-1.791-4-4zM0 16c0-2.209 1.791-4 4-4s4 1.791 4 4c0 2.209-1.791 4-4 4s-4-1.791-4-4zM0 28c0-2.209 1.791-4 4-4s4 1.791 4 4c0 2.209-1.791 4-4 4s-4-1.791-4-4z"></path>
        </symbol>
        <symbol id="icon-bold" viewBox="0 0 32 32">
            <title>bold</title>
            <path class="path1" d="M22.121 15.145c1.172-1.392 1.879-3.188 1.879-5.145 0-4.411-3.589-8-8-8h-10v28h12c4.411 0 8-3.589 8-8 0-2.905-1.556-5.453-3.879-6.855zM12 6h3.172c1.749 0 3.172 1.794 3.172 4s-1.423 4-3.172 4h-3.172v-8zM16.969 26h-4.969v-8h4.969c1.827 0 3.313 1.794 3.313 4s-1.486 4-3.313 4z"></path>
        </symbol>
        <symbol id="icon-underline" viewBox="0 0 32 32">
            <title>underline</title>
            <path class="path1" d="M22 2h4v13c0 4.971-4.477 9-10 9s-10-4.029-10-9v-13h4v13c0 1.255 0.57 2.459 1.605 3.391 1.153 1.038 2.714 1.609 4.395 1.609s3.242-0.572 4.395-1.609c1.035-0.931 1.605-2.136 1.605-3.391v-13zM6 26h20v4h-20z"></path>
        </symbol>
        <symbol id="icon-italic" viewBox="0 0 32 32">
            <title>italic</title>
            <path class="path1" d="M28 2v2h-4l-10 24h4v2h-14v-2h4l10-24h-4v-2z"></path>
        </symbol>
        <symbol id="icon-strikethrough" viewBox="0 0 32 32">
            <title>strikethrough</title>
            <path class="path1" d="M32 16v2h-7.328c0.86 1.203 1.328 2.584 1.328 4 0 2.215-1.146 4.345-3.143 5.843-1.855 1.391-4.29 2.157-6.857 2.157s-5.002-0.766-6.857-2.157c-1.998-1.498-3.143-3.628-3.143-5.843h4c0 2.168 2.748 4 6 4s6-1.832 6-4c0-2.168-2.748-4-6-4h-16v-2h9.36c-0.073-0.052-0.146-0.104-0.217-0.157-1.998-1.498-3.143-3.628-3.143-5.843s1.146-4.345 3.143-5.843c1.855-1.391 4.29-2.157 6.857-2.157s5.002 0.766 6.857 2.157c1.997 1.498 3.143 3.628 3.143 5.843h-4c0-2.168-2.748-4-6-4s-6 1.832-6 4c0 2.168 2.748 4 6 4 2.468 0 4.814 0.709 6.64 2h9.36z"></path>
        </symbol>
        <symbol id="icon-clear-formatting" viewBox="0 0 32 32">
            <title>clear-formatting</title>
            <path class="path1" d="M0 28h18v4h-18zM28 4h-9.455l-5.743 22h-4.134l5.743-22h-8.411v-4h22zM29.055 32l-4.055-4.055-4.055 4.055-1.945-1.945 4.055-4.055-4.055-4.055 1.945-1.945 4.055 4.055 4.055-4.055 1.945 1.945-4.055 4.055 4.055 4.055z"></path>
        </symbol>
    </defs>
</svg>
