<svg viewBox="0 0 16 16" xmlns="http://www.w3.org/2000/svg"><path d="M 8 0 C 9.083 0 10.119 0.211 11.107 0.634 C 12.095 1.057 12.946 1.625 13.661 2.339 C 14.375 3.054 14.943 3.905 15.366 4.893 C 15.789 5.881 16 6.917 16 8 C 16 9.083 15.789 10.119 15.366 11.107 C 14.943 12.095 14.375 12.946 13.661 13.661 C 12.946 14.375 12.095 14.943 11.107 15.366 C 10.119 15.789 9.083 16 8 16 C 6.917 16 5.881 15.789 4.893 15.366 C 3.905 14.943 3.054 14.375 2.339 13.661 C 1.625 12.946 1.057 12.095 0.634 11.107 C 0.211 10.119 0 9.083 0 8 C 0 6.917 0.211 5.881 0.634 4.893 C 1.057 3.905 1.625 3.054 2.339 2.339 C 3.054 1.625 3.905 1.057 4.893 0.634 C 5.881 0.211 6.917 0 8 0 Z M 8 1.143 C 6.869 1.143 5.795 1.411 4.777 1.946 L 6.509 3.679 C 6.997 3.512 7.494 3.429 8 3.429 C 8.506 3.429 9.003 3.512 9.491 3.679 L 11.223 1.946 C 10.205 1.411 9.131 1.143 8 1.143 Z M 1.946 11.223 L 3.679 9.491 C 3.512 9.003 3.429 8.506 3.429 8 C 3.429 7.494 3.512 6.997 3.679 6.509 L 1.946 4.777 C 1.411 5.795 1.143 6.869 1.143 8 C 1.143 9.131 1.411 10.205 1.946 11.223 Z M 8 14.857 C 9.131 14.857 10.205 14.589 11.223 14.054 L 9.491 12.321 C 9.003 12.488 8.506 12.571 8 12.571 C 7.494 12.571 6.997 12.488 6.509 12.321 L 4.777 14.054 C 5.795 14.589 6.869 14.857 8 14.857 Z M 8 11.429 C 8.946 11.429 9.754 11.094 10.424 10.424 C 11.094 9.754 11.429 8.946 11.429 8 C 11.429 7.054 11.094 6.246 10.424 5.576 C 9.754 4.906 8.946 4.571 8 4.571 C 7.054 4.571 6.246 4.906 5.576 5.576 C 4.906 6.246 4.571 7.054 4.571 8 C 4.571 8.946 4.906 9.754 5.576 10.424 C 6.246 11.094 7.054 11.429 8 11.429 Z M 12.321 9.491 L 14.054 11.223 C 14.589 10.205 14.857 9.131 14.857 8 C 14.857 6.869 14.589 5.795 14.054 4.777 L 12.321 6.509 C 12.488 6.997 12.571 7.494 12.571 8 C 12.571 8.506 12.488 9.003 12.321 9.491 Z"/></svg>
